<?xml version="1.0" standalone="no"?>
<!DOCTYPE svg PUBLIC "-//W3C//DTD SVG 20010904//EN"
 "http://www.w3.org/TR/2001/REC-SVG-20010904/DTD/svg10.dtd">
<svg version="1.0" xmlns="http://www.w3.org/2000/svg"
 width="160.000000pt" height="160.000000pt" viewBox="0 0 160.000000 160.000000"
 preserveAspectRatio="xMidYMid meet">
<metadata>
Created by potrace 1.11, written by Peter Selinger 2001-2013
</metadata>
<g transform="translate(0.000000,160.000000) scale(0.100000,-0.100000)"
fill="#000000" stroke="none">
<path d="M634 1436 c-3 -8 0 -24 6 -36 14 -27 7 -57 -32 -137 -22 -46 -29 -72
-26 -103 3 -41 2 -43 -39 -59 -98 -38 -137 -101 -138 -220 0 -73 -3 -86 -20
-95 -109 -58 -140 -106 -132 -204 2 -32 7 -66 11 -77 6 -17 1 -23 -31 -34 -90
-32 -133 -88 -139 -182 -2 -45 2 -68 22 -106 40 -82 127 -113 256 -91 141 23
230 25 328 8 48 -8 166 -13 330 -14 241 0 259 1 323 23 81 27 124 61 148 116
41 92 -26 220 -129 248 -37 10 -42 14 -37 32 19 57 17 132 -4 181 -22 50 -36
63 -101 95 -34 17 -35 18 -35 81 -1 47 -6 70 -20 91 -20 27 -106 77 -134 77
-12 0 -16 12 -17 53 -2 122 -114 248 -298 332 -85 40 -85 40 -92 21z"/>
</g>
</svg>
