<?xml version="1.0" standalone="no"?>
<!DOCTYPE svg PUBLIC "-//W3C//DTD SVG 20010904//EN"
 "http://www.w3.org/TR/2001/REC-SVG-20010904/DTD/svg10.dtd">
<svg version="1.0" xmlns="http://www.w3.org/2000/svg"
 width="120.000000pt" height="120.000000pt" viewBox="0 0 120.000000 120.000000"
 preserveAspectRatio="xMidYMid meet">
<metadata>
Created by potrace 1.11, written by Peter Selinger 2001-2013
</metadata>
<g transform="translate(0.000000,120.000000) scale(0.100000,-0.100000)"
fill="#000000" stroke="none">
<path d="M537 1173 c-2 -1 -18 -5 -36 -8 -271 -48 -474 -290 -474 -565 0 -182
87 -353 236 -464 42 -30 150 -82 191 -91 14 -3 38 -8 54 -12 48 -11 165 -6
229 10 68 18 193 75 193 89 0 4 6 8 14 8 19 0 121 114 157 175 53 90 74 176
72 295 -2 210 -111 390 -303 497 -31 17 -96 43 -125 49 -63 13 -89 17 -143 18
-35 1 -64 1 -65 -1z"/>
</g>
</svg>
